<svg xmlns="http://www.w3.org/2000/svg" width="400" height="399.993" viewBox="0 0 400 399.993"><path fill="#33D2EF" d="M200 0c110.457 0 200 89.543 200 200 0 110.452-89.543 199.993-200 199.993C89.544 399.993 0 310.452 0 200 0 89.543 89.544 0 200 0z"/><path d="M293.92 257.141c-1.236 0-2.25.252-3.042.756s-1.188 1.266-1.188 2.286.396 1.8 1.188 2.34 2.478 1.122 5.058 1.746 4.523 1.5 5.832 2.628 1.963 2.79 1.963 4.984c0 2.197-.828 3.979-2.484 5.348-1.655 1.367-3.828 2.053-6.516 2.053-3.938 0-7.43-1.355-10.477-4.068l2.663-3.205c2.544 2.209 5.185 3.313 7.921 3.313 1.367 0 2.453-.294 3.258-.882s1.206-1.368 1.206-2.34c0-.973-.378-1.729-1.135-2.27-.756-.539-2.058-1.031-3.905-1.476-1.849-.444-3.253-.853-4.212-1.226a9.45 9.45 0 0 1-2.557-1.457c-1.488-1.129-2.231-2.855-2.231-5.185s.846-4.122 2.538-5.382c1.691-1.262 3.785-1.891 6.281-1.891 1.608 0 3.204.265 4.788.791 1.584.529 2.951 1.272 4.104 2.232l-2.269 3.204c-.744-.672-1.752-1.226-3.022-1.655-1.272-.428-2.526-.644-3.762-.644zm-18.845-3.312h4.248v25.164h-4.608l-14.256-18.359v18.359h-4.248v-25.164h4.248l14.616 18.793v-18.793zm-28.044 21.69c-2.545 2.483-5.688 3.726-9.432 3.726-3.744 0-6.89-1.242-9.434-3.726s-3.814-5.58-3.814-9.288 1.271-6.805 3.814-9.288 5.688-3.728 9.434-3.728c3.742 0 6.887 1.242 9.432 3.728 2.544 2.483 3.816 5.58 3.816 9.288s-1.272 6.805-3.816 9.288zm-3.114-15.75c-1.716-1.776-3.821-2.664-6.317-2.664s-4.603.888-6.317 2.664c-1.716 1.776-2.574 3.931-2.574 6.462 0 2.532.858 4.686 2.574 6.462s3.821 2.664 6.317 2.664 4.603-.888 6.317-2.664 2.574-3.93 2.574-6.462c0-2.531-.859-4.686-2.574-6.462zm-29.179-5.94h4.248v25.164h-4.248v-25.164zm-12.238 3.886v21.277h-4.249v-21.277h-7.632v-3.887h19.512v3.887H202.5zm-31.501 15.518c1.152 1.344 2.712 2.016 4.68 2.016 1.967 0 3.528-.672 4.68-2.016s1.728-3.168 1.728-5.473v-13.932h4.248v14.111c0 3.624-.996 6.414-2.988 8.37-1.993 1.956-4.548 2.935-7.668 2.935-3.121 0-5.676-.979-7.668-2.935s-2.988-4.746-2.988-8.37v-14.111h4.248v13.932c0 2.305.576 4.129 1.728 5.473zm-25.416 5.76v-25.164h4.248v21.133h11.484v4.031h-15.732zm-9.18-3.474c-2.544 2.483-5.688 3.726-9.432 3.726-3.744 0-6.889-1.242-9.432-3.726-2.544-2.483-3.816-5.58-3.816-9.288s1.272-6.805 3.816-9.288c2.543-2.483 5.688-3.728 9.432-3.728 3.744 0 6.888 1.242 9.432 3.728 2.544 2.483 3.816 5.58 3.816 9.288s-1.272 6.805-3.816 9.288zm-3.113-15.75c-1.716-1.776-3.822-2.664-6.318-2.664-2.497 0-4.603.888-6.318 2.664-1.715 1.776-2.574 3.931-2.574 6.462 0 2.532.858 4.686 2.574 6.462 1.716 1.776 3.822 2.664 6.318 2.664 2.496 0 4.602-.888 6.318-2.664s2.574-3.93 2.574-6.462c0-2.531-.859-4.686-2.574-6.462zm-33.012-2.628c-1.236 0-2.25.252-3.042.756s-1.188 1.266-1.188 2.286.396 1.8 1.188 2.34 2.478 1.122 5.058 1.746 4.523 1.5 5.832 2.628c1.308 1.128 1.962 2.79 1.962 4.984 0 2.197-.828 3.979-2.484 5.348-1.656 1.367-3.829 2.053-6.516 2.053-3.937 0-7.428-1.355-10.476-4.068l2.664-3.205c2.543 2.209 5.184 3.313 7.92 3.313 1.368 0 2.454-.294 3.258-.882.804-.588 1.206-1.368 1.206-2.34 0-.973-.378-1.729-1.134-2.27-.756-.539-2.058-1.031-3.906-1.476-1.849-.444-3.252-.853-4.212-1.226a9.46 9.46 0 0 1-2.556-1.457c-1.489-1.129-2.232-2.855-2.232-5.185s.846-4.122 2.538-5.382c1.692-1.262 3.786-1.891 6.282-1.891 1.607 0 3.204.265 4.788.791 1.584.529 2.952 1.272 4.104 2.232l-2.268 3.204c-.744-.672-1.752-1.226-3.024-1.655-1.272-.428-2.526-.644-3.762-.644z" fill="#FFF"/><g fill="#FFF"><path d="M324.83 142.442c-7.102 0-12.805 5.757-12.805 12.859v60.558c0 7.103 5.703 12.856 12.805 12.856 6.504 0 11.852-4.827 12.709-11.096.021-.158.043-.865.043-.865l.085-61.454c0-7.101-5.735-12.858-12.837-12.858z"/><circle cx="324.775" cy="123.184" r="12.859"/><path d="M293.186 200.748c-2.017 0-3.902.539-5.537 1.469-.373.213-2.812 2.179-3.002 2.323-3.154 2.435-7.363 3.439-11.59 3.439-9.953 0-19.244-7.632-19.244-22.066 0-14.933 9.291-22.564 19.244-22.564 4.407 0 8.811 1.079 12.004 3.745.073.061.598.528.66.584.6.54 1.254 1.017 1.956 1.419a11.127 11.127 0 0 0 5.539 1.475c5.277 0 9.688-3.66 10.877-8.579 0-.004.003-.007.003-.012a11.23 11.23 0 0 0 .319-2.625c0-3.175-1.321-6.034-3.438-8.074a29.246 29.246 0 0 0-1.002-.856 152.853 152.853 0 0 0-1.838-1.204c-8.046-5.204-17.375-7.775-25.08-7.775-18.25 0-44.795 14.103-44.463 44.465.329 29.863 26.213 43.965 44.463 43.965 7.555 0 16.672-2.455 24.606-7.451.094-.061 1.183-.717 2.088-1.377.356-.262 1.347-1.172 1.552-1.397 1.856-2.06 3.094-4.704 3.094-7.692 0-.908-.119-1.789-.324-2.635-1.187-4.918-5.605-8.577-10.887-8.577zm-83.502-90.296c-6.966 0-12.609 5.646-12.609 12.609v25.686c-1.66-1.162-6.471-7.3-21.072-7.3-18.084 0-40.317 14.6-40.317 44.134 0 30.194 22.233 44.296 40.317 44.296 10.617 0 18.746-4.977 21.07-8.459v-.002s.551-.808.719-1.117c1.73 4.897 6.4 8.406 11.893 8.406 6.963 0 12.609-5.646 12.609-12.609v-93.034c-.002-6.964-5.648-12.61-12.61-12.61zm-29.535 97.857c-9.955 0-19.245-8.46-19.245-22.728 0-14.104 9.291-22.565 19.245-22.565 9.623 0 18.084 5.641 18.084 22.565.001 17.087-8.461 22.728-18.084 22.728zm-63.372-65.867c-5.099 0-9.491 3.026-11.479 7.38a57.896 57.896 0 0 0-.726-.696c-.247-.233-.789-.678-1.037-.896-2.117-1.866-7.225-6.783-20.442-6.783-18.084 0-40.151 14.6-40.151 44.134 0 30.194 22.233 44.296 40.151 44.296 10.164 0 18.288-4.705 20.865-8.168.073-.1.309-.437.438-.625.179-.26.41-.606.485-.77a12.613 12.613 0 0 0 11.568 8.4h.591c6.768-.139 12.221-5.596 12.343-12.37v-61.43c-.075-6.9-5.687-12.472-12.606-12.472zm-29.37 65.867c-10.121 0-19.246-8.46-19.246-22.728 0-14.104 9.125-22.565 19.246-22.565 9.624 0 17.919 5.641 17.919 22.565 0 17.087-8.296 22.728-17.919 22.728z"/></g></svg>