<?xml version="1.0" encoding="utf-8"?>
<!-- Generator: Adobe Illustrator 16.0.3, SVG Export Plug-In . SVG Version: 6.00 Build 0)  -->
<!DOCTYPE svg PUBLIC "-//W3C//DTD SVG 1.1//EN" "http://www.w3.org/Graphics/SVG/1.1/DTD/svg11.dtd">
<svg version="1.1" id="logo" xmlns="http://www.w3.org/2000/svg" xmlns:xlink="http://www.w3.org/1999/xlink" x="0px" y="0px"
	 width="400px" height="399.993px" viewBox="0 0 400 399.993" enable-background="new 0 0 400 399.993" xml:space="preserve">
<path id="blue_x5F_bg" fill="#33D2EF" d="M200,0c110.457,0,200,89.543,200,200c0,110.452-89.543,199.993-200,199.993
	C89.544,399.993,0,310.452,0,200C0,89.543,89.544,0,200,0z"/>
<g id="solutions">
	<path id="s" fill="#FFFFFF" d="M293.92,257.141c-1.236,0-2.25,0.252-3.042,0.756s-1.188,1.266-1.188,2.286s0.396,1.8,1.188,2.34
		s2.478,1.122,5.058,1.746s4.523,1.5,5.832,2.628s1.963,2.79,1.963,4.984c0,2.197-0.828,3.979-2.484,5.348
		c-1.655,1.367-3.828,2.053-6.516,2.053c-3.938,0-7.43-1.355-10.477-4.068l2.663-3.205c2.544,2.209,5.185,3.313,7.921,3.313
		c1.367,0,2.453-0.294,3.258-0.882s1.206-1.368,1.206-2.34c0-0.973-0.378-1.729-1.135-2.27c-0.756-0.539-2.058-1.031-3.905-1.476
		c-1.849-0.444-3.253-0.853-4.212-1.226c-0.961-0.371-1.813-0.856-2.557-1.457c-1.488-1.129-2.231-2.855-2.231-5.185
		s0.846-4.122,2.538-5.382c1.691-1.262,3.785-1.891,6.281-1.891c1.608,0,3.204,0.265,4.788,0.791
		c1.584,0.529,2.951,1.272,4.104,2.232l-2.269,3.204c-0.744-0.672-1.752-1.226-3.022-1.655
		C296.41,257.357,295.156,257.141,293.92,257.141z"/>
	<path id="n" fill="#FFFFFF" d="M275.075,253.829h4.248v25.164h-4.608l-14.256-18.359v18.359h-4.248v-25.164h4.248l14.616,18.793
		V253.829L275.075,253.829z"/>
	<path id="o" fill="#FFFFFF" d="M247.031,275.519c-2.545,2.483-5.688,3.726-9.432,3.726c-3.744,0-6.89-1.242-9.434-3.726
		s-3.814-5.58-3.814-9.288s1.271-6.805,3.814-9.288s5.688-3.728,9.434-3.728c3.742,0,6.887,1.242,9.432,3.728
		c2.544,2.483,3.816,5.58,3.816,9.288S249.575,273.036,247.031,275.519z M243.917,259.769c-1.716-1.776-3.821-2.664-6.317-2.664
		s-4.603,0.888-6.317,2.664c-1.716,1.776-2.574,3.931-2.574,6.462c0,2.532,0.858,4.686,2.574,6.462s3.821,2.664,6.317,2.664
		s4.603-0.888,6.317-2.664s2.574-3.93,2.574-6.462C246.491,263.7,245.632,261.545,243.917,259.769z"/>
	<path id="i_1_" fill="#FFFFFF" d="M214.738,253.829h4.248v25.164h-4.248V253.829z"/>
	<path id="t" fill="#FFFFFF" d="M202.5,257.715v21.277h-4.249v-21.277h-7.632v-3.887h19.512v3.887H202.5z"/>
	<path id="u" fill="#FFFFFF" d="M170.999,273.233c1.152,1.344,2.712,2.016,4.68,2.016c1.967,0,3.528-0.672,4.68-2.016
		s1.728-3.168,1.728-5.473v-13.932h4.248v14.111c0,3.624-0.996,6.414-2.988,8.37c-1.993,1.956-4.548,2.935-7.668,2.935
		c-3.121,0-5.676-0.979-7.668-2.935c-1.992-1.956-2.988-4.746-2.988-8.37v-14.111h4.248v13.932
		C169.271,270.065,169.847,271.889,170.999,273.233z"/>
	<path id="l" fill="#FFFFFF" d="M145.583,278.993v-25.164h4.248v21.133h11.484v4.031H145.583z"/>
	<path id="o_1_" fill="#FFFFFF" d="M136.403,275.519c-2.544,2.483-5.688,3.726-9.432,3.726c-3.744,0-6.889-1.242-9.432-3.726
		c-2.544-2.483-3.816-5.58-3.816-9.288s1.272-6.805,3.816-9.288c2.543-2.483,5.688-3.728,9.432-3.728
		c3.744,0,6.888,1.242,9.432,3.728c2.544,2.483,3.816,5.58,3.816,9.288S138.947,273.036,136.403,275.519z M133.29,259.769
		c-1.716-1.776-3.822-2.664-6.318-2.664c-2.497,0-4.603,0.888-6.318,2.664c-1.715,1.776-2.574,3.931-2.574,6.462
		c0,2.532,0.858,4.686,2.574,6.462c1.716,1.776,3.822,2.664,6.318,2.664c2.496,0,4.602-0.888,6.318-2.664s2.574-3.93,2.574-6.462
		C135.864,263.7,135.005,261.545,133.29,259.769z"/>
	<path id="s_1_" fill="#FFFFFF" d="M100.278,257.141c-1.236,0-2.25,0.252-3.042,0.756s-1.188,1.266-1.188,2.286
		s0.396,1.8,1.188,2.34s2.478,1.122,5.058,1.746s4.523,1.5,5.832,2.628c1.308,1.128,1.962,2.79,1.962,4.984
		c0,2.197-0.828,3.979-2.484,5.348c-1.656,1.367-3.829,2.053-6.516,2.053c-3.937,0-7.428-1.355-10.476-4.068l2.664-3.205
		c2.543,2.209,5.184,3.313,7.92,3.313c1.368,0,2.454-0.294,3.258-0.882c0.804-0.588,1.206-1.368,1.206-2.34
		c0-0.973-0.378-1.729-1.134-2.27c-0.756-0.539-2.058-1.031-3.906-1.476c-1.849-0.444-3.252-0.853-4.212-1.226
		c-0.96-0.371-1.812-0.856-2.556-1.457c-1.489-1.129-2.232-2.855-2.232-5.185s0.846-4.122,2.538-5.382
		c1.692-1.262,3.786-1.891,6.282-1.891c1.607,0,3.204,0.265,4.788,0.791c1.584,0.529,2.952,1.272,4.104,2.232l-2.268,3.204
		c-0.744-0.672-1.752-1.226-3.024-1.655C102.768,257.357,101.514,257.141,100.278,257.141z"/>
</g>
<g id="adci_11_">
	<g id="i">
		<path fill="#FFFFFF" d="M324.83,142.442c-7.102,0-12.805,5.757-12.805,12.859v60.558c0,7.103,5.703,12.856,12.805,12.856
			c6.504,0,11.852-4.827,12.709-11.096c0.021-0.158,0.043-0.865,0.043-0.865l0.085-61.454
			C337.667,148.199,331.932,142.442,324.83,142.442z"/>
		<circle fill="#FFFFFF" cx="324.775" cy="123.184" r="12.859"/>
	</g>
	<path id="c" fill="#FFFFFF" d="M293.186,200.748c-2.017,0-3.902,0.539-5.537,1.469c-0.373,0.213-2.812,2.179-3.002,2.323
		c-3.154,2.435-7.363,3.439-11.59,3.439c-9.953,0-19.244-7.632-19.244-22.066c0-14.933,9.291-22.564,19.244-22.564
		c4.407,0,8.811,1.079,12.004,3.745c0.073,0.061,0.598,0.528,0.66,0.584c0.6,0.54,1.254,1.017,1.956,1.419
		c1.636,0.934,3.521,1.475,5.539,1.475c5.277,0,9.688-3.66,10.877-8.579c0-0.004,0.003-0.007,0.003-0.012
		c0.202-0.842,0.319-1.719,0.319-2.625c0-3.175-1.321-6.034-3.438-8.074c-0.109-0.103-0.662-0.581-1.002-0.856
		c-0.072-0.058-1.701-1.116-1.838-1.204c-8.046-5.204-17.375-7.775-25.08-7.775c-18.25,0-44.795,14.103-44.463,44.465
		c0.329,29.863,26.213,43.965,44.463,43.965c7.555,0,16.672-2.455,24.606-7.451c0.094-0.061,1.183-0.717,2.088-1.377
		c0.356-0.262,1.347-1.172,1.552-1.397c1.856-2.06,3.094-4.704,3.094-7.692c0-0.908-0.119-1.789-0.324-2.635
		C302.886,204.407,298.468,200.748,293.186,200.748z"/>
	<path id="d" fill="#FFFFFF" d="M209.684,110.452c-6.966,0-12.609,5.646-12.609,12.609v25.686c-1.66-1.162-6.471-7.3-21.072-7.3
		c-18.084,0-40.317,14.6-40.317,44.134c0,30.194,22.233,44.296,40.317,44.296c10.617,0,18.746-4.977,21.07-8.459v-0.002
		c0,0,0.551-0.808,0.719-1.117c1.73,4.897,6.4,8.406,11.893,8.406c6.963,0,12.609-5.646,12.609-12.609v-93.034
		C222.292,116.098,216.646,110.452,209.684,110.452z M180.149,208.309c-9.955,0-19.245-8.46-19.245-22.728
		c0-14.104,9.291-22.565,19.245-22.565c9.623,0,18.084,5.641,18.084,22.565C198.234,202.668,189.772,208.309,180.149,208.309z"/>
	<path id="a" fill="#FFFFFF" d="M116.777,142.442c-5.099,0-9.491,3.026-11.479,7.38c-0.272-0.265-0.527-0.509-0.726-0.696
		c-0.247-0.233-0.789-0.678-1.037-0.896c-2.117-1.866-7.225-6.783-20.442-6.783c-18.084,0-40.151,14.6-40.151,44.134
		c0,30.194,22.233,44.296,40.151,44.296c10.164,0,18.288-4.705,20.865-8.168c0.073-0.1,0.309-0.437,0.438-0.625
		c0.179-0.26,0.41-0.606,0.485-0.77c1.696,4.805,6.22,8.262,11.568,8.4h0.591c6.768-0.139,12.221-5.596,12.343-12.37v-61.43
		C129.308,148.014,123.696,142.442,116.777,142.442z M87.407,208.309c-10.121,0-19.246-8.46-19.246-22.728
		c0-14.104,9.125-22.565,19.246-22.565c9.624,0,17.919,5.641,17.919,22.565C105.326,202.668,97.03,208.309,87.407,208.309z"/>
</g>
</svg>
