<?xml version="1.0" encoding="utf-8"?>
<!-- Generator: Adobe Illustrator 20.1.0, SVG Export Plug-In . SVG Version: 6.00 Build 0)  -->
<svg version="1.1" id="Слой_1" xmlns="http://www.w3.org/2000/svg" xmlns:xlink="http://www.w3.org/1999/xlink" x="0px" y="0px"
	 viewBox="0 0 288.8 288.8" style="enable-background:new 0 0 288.8 288.8;" xml:space="preserve">
<style type="text/css">
	.st0{fill:#1F40CE;}
	.st1{fill:none;stroke:#19FEA0;stroke-width:16.9526;}
	.st2{fill:none;stroke:#FFFFFF;stroke-width:3;}
	.st3{fill:#FFFFFF;}
</style>
<ellipse id="Эллипс_3" class="st0" cx="144.4" cy="144.4" rx="144.4" ry="144.4"/>
<path id="Эллипс_2_3_" class="st1" d="M218.9,154.1c0.1,40.9-32.9,74.3-73.9,74.4"/>
<path id="Эллипс_2_2_" class="st1" d="M70.6,154.7c0-0.2,0-0.4,0-0.5c0-40.9,63.3-110.4,74.1-110.4"/>
<path id="Эллипс_2" class="st2" d="M145,228.5c-20.5,0.1-39-8.2-52.5-21.5s-21.8-31.9-21.9-52.3"/>
<path id="Эллипс_2_1_" class="st2" d="M144.7,43.8c3.3,0,26.9,22.5,46.6,49.5c14.9,20.4,27.6,43.3,27.6,61"/>
<g id="Эллипс_2_5_">
	<g>
		<path class="st3" d="M76.1,157.7c0.8,17.2,7.9,33.3,20.2,45.5c12.3,12.2,28.4,19.2,45.6,19.9l0,11c-20.1-0.7-39-8.8-53.4-23.1
			c-14.4-14.3-22.6-33.1-23.5-53.2L76.1,157.7 M79.1,154.6l-17,0.1c0.1,22.1,8.7,42.8,24.4,58.3c15.6,15.5,36.2,24,58.2,24
			c0.1,0,0.2,0,0.3,0l-0.1-17c-0.1,0-0.2,0-0.2,0c-17.4,0-33.9-6.8-46.3-19.1C86,188.6,79.1,172.2,79.1,154.6L79.1,154.6z"/>
	</g>
</g>
<g id="Эллипс_2_4_">
	<g>
		<path class="st3" d="M147.7,39c2.8,1.3,7.8,5,18.1,15.6c6,6.2,17.9,19,29.9,35.4c17.9,24.5,27.4,45,28.5,61.2h-11
			c-1.2-13.7-10.5-33-26.4-54.7c-17.4-23.8-34.7-40-39.2-44v-8.8V39 M144.7,35.3v8.4v10.1c2,1.7,21.2,19,39.7,44.4
			c16.7,22.9,25.9,42.8,25.9,56h17c0-17.2-9.8-39.4-29.2-65.9C186.1,71.7,174,58.7,168,52.5C151.2,35.3,147.6,35.3,144.7,35.3
			L144.7,35.3z"/>
	</g>
</g>
</svg>
