<svg id="Слой_1" xmlns="http://www.w3.org/2000/svg" viewBox="0 0 288.8 288.8"><style>.st0{fill:#1f40ce}.st1,.st2{fill:none;stroke:#19fea0;stroke-width:16.9526}.st2{stroke:#fff;stroke-width:3}.st3{fill:#fff}</style><ellipse id="Эллипс_3" class="st0" cx="144.4" cy="144.4" rx="144.4" ry="144.4"/><path id="Эллипс_2_3_" class="st1" d="M218.9 154.1c.1 40.9-32.9 74.3-73.9 74.4"/><path id="Эллипс_2_2_" class="st1" d="M70.6 154.7v-.5c0-40.9 63.3-110.4 74.1-110.4"/><path id="Эллипс_2" class="st2" d="M145 228.5c-20.5.1-39-8.2-52.5-21.5s-21.8-31.9-21.9-52.3"/><path id="Эллипс_2_1_" class="st2" d="M144.7 43.8c3.3 0 26.9 22.5 46.6 49.5 14.9 20.4 27.6 43.3 27.6 61"/><path class="st3" d="M76.1 157.7c.8 17.2 7.9 33.3 20.2 45.5 12.3 12.2 28.4 19.2 45.6 19.9v11c-20.1-.7-39-8.8-53.4-23.1-14.4-14.3-22.6-33.1-23.5-53.2l11.1-.1m3-3.1l-17 .1c.1 22.1 8.7 42.8 24.4 58.3 15.6 15.5 36.2 24 58.2 24h.3l-.1-17h-.2c-17.4 0-33.9-6.8-46.3-19.1-12.4-12.3-19.3-28.7-19.3-46.3z" id="Эллипс_2_5_"/><path class="st3" d="M147.7 39c2.8 1.3 7.8 5 18.1 15.6 6 6.2 17.9 19 29.9 35.4 17.9 24.5 27.4 45 28.5 61.2h-11c-1.2-13.7-10.5-33-26.4-54.7-17.4-23.8-34.7-40-39.2-44V39m-2.9-3.7v18.5c2 1.7 21.2 19 39.7 44.4 16.7 22.9 25.9 42.8 25.9 56h17c0-17.2-9.8-39.4-29.2-65.9-12-16.6-24.1-29.6-30.1-35.8-16.8-17.2-20.4-17.2-23.3-17.2z" id="Эллипс_2_4_"/></svg>